<svg width="888" height="253" viewBox="0 0 888 253" fill="none" xmlns="http://www.w3.org/2000/svg">
<path d="M0 125.333V250.667H41.7333C64.8 250.667 105.067 251.067 131.467 251.6L179.333 252.4L189.333 244.4C220.8 219.467 236.667 195.2 238.267 170C239.6 150 233.867 135.467 212.533 105.333C195.2 80.6666 191.467 72.7999 190.8 59.7332C190.4 50.9332 190.933 48.3999 193.733 42.1332C200 28.3999 215.867 14.7999 237.6 4.66656L247.333 0.133223L123.733 -0.00011082H0V125.333ZM132 46.6666C132 70.7999 131.733 90.6666 131.467 90.6666C131.2 90.6666 122.4 75.9999 112 57.9999C98.9333 35.4666 92.5333 25.5999 91.4667 26.3999C90.6667 27.0666 87.2 29.1999 83.7333 31.0666L77.4667 34.6666L96.8 68.1332C107.333 86.5332 115.067 101.333 114 100.8C112.8 100.4 97.8667 91.9999 80.6667 81.9999C63.4667 72.1332 49.2 63.9999 48.8 63.9999C48 63.9999 39.7333 78.7999 40.2667 79.4666C40.5333 79.7332 54.8 87.9999 72 97.9999C89.2 108 103.867 116.667 104.533 117.467C105.333 118.133 91.4667 118.667 67.6 118.667H29.3333V128V137.333L67.7333 137.467C93.6 137.467 105.333 137.867 104 138.8C102.933 139.6 88.5333 148 72 157.6C55.4667 167.067 41.4667 175.333 40.9333 175.867C40.4 176.4 41.8667 180.267 44.1333 184.4C48 191.067 48.8 191.733 51.2 190.4C53.3333 189.2 109.867 156.8 115.067 153.733C116.667 152.8 115.467 154.933 95.8667 188.933C86.4 205.333 78.5333 219.2 78.4 220C77.8667 221.867 93.6 230.4 94.1333 228.667C94.5333 227.867 102.4 214.133 111.733 198C121.2 181.867 129.6 167.467 130.4 166C131.6 164 131.867 173.067 132 205.6V248H123.467C113.733 248 93.6 243.2 82.4 238.267C46.4 222.267 19.0667 188.133 11.3333 149.467C8.13333 134.133 9.2 106.267 13.3333 91.9999C19.0667 71.8666 32.9333 49.4666 47.6 35.9999C69.6 15.8666 98.6667 3.46656 125.067 2.79989L132 2.66656V46.6666Z" fill="url(#paint0_linear_97_424)"/>
<path d="M309.2 1.99981C292.8 7.19981 284 17.9998 284 32.5331C284.133 49.9998 292.4 59.0665 317.467 68.7998C333.467 75.0665 341.333 80.1331 341.333 84.3998C341.333 85.4665 340.133 87.8665 338.667 89.7331C332.933 96.9331 314.667 95.7331 297.333 87.0665C291.867 84.2665 286.933 81.7331 286.4 81.5998C285.733 81.3331 285.333 86.5331 285.333 93.3331V105.466L292.8 108.8C315.333 118.8 341.6 118.4 356.933 107.866C372 97.4665 374.933 75.1998 363.067 61.4665C357.333 54.6665 351.067 51.0665 333.333 43.9998C318.133 37.9998 313.333 34.5331 313.333 29.7331C313.333 19.4665 338.133 19.5998 363.067 29.9998C365.067 30.7998 365.333 29.8665 365.333 19.5998V8.13314L354.4 4.53314C340.533 0.13314 318.933 -1.06686 309.2 1.99981Z" fill="url(#paint1_linear_97_424)"/>
<path d="M544.267 1.73316C532.8 5.99983 525.467 16.3998 524.267 30.2665L523.6 38.6665H518.533H513.333V46.6665V54.6665H518.667H524V84.6665V114.667H536H548V84.6665V54.6665H553.333H558.667V46.6665V38.6665H553.2H547.6L548.4 32.5332C549.333 23.1998 552.667 20.6665 563.333 20.9332L572 21.0665V11.3332C572 2.39983 571.733 1.59983 569.067 0.799831C564 -0.533502 548.933 0.133165 544.267 1.73316Z" fill="url(#paint2_linear_97_424)"/>
<path d="M477.333 57.9998V114.667H489.333H501.333V57.9998V1.33316H489.333H477.333V57.9998Z" fill="url(#paint3_linear_97_424)"/>
<path d="M405.733 39.5999C391.733 44.5333 381.067 59.8666 380.8 75.3333C380.533 92.1333 387.867 104.533 402.267 111.6C416.267 118.4 441.067 117.2 454.4 109.067C458.4 106.667 458.667 106 458.667 98.7999V91.1999L449.733 95.5999C439.067 100.8 430.8 102.133 422.933 99.9999C415.333 97.9999 408.133 91.3333 406.8 84.9333L405.6 79.9999H432.933H460.4L459.733 71.5999C458 51.0666 442 37.1999 420.267 37.4666C415.333 37.4666 408.8 38.3999 405.733 39.5999ZM430.133 53.9999C434.4 55.7333 438.667 62.1333 438.667 66.6666C438.667 67.4666 432.8 67.9999 422.667 67.9999C405.067 67.9999 404.667 67.7333 408.8 59.8666C412.4 52.9333 421.467 50.3999 430.133 53.9999Z" fill="url(#paint4_linear_97_424)"/>
<path d="M596.667 39.0666C588.4 41.8666 583.733 44.6666 578.533 50.2666C571.467 57.5999 568.933 63.4666 568.267 74.1332C567.467 87.4666 570.4 95.9999 578.933 104.267C588 113.067 599.467 116.667 615.867 115.6C622.133 115.2 629.733 114 632.667 112.933L638 111.067L638.4 102.667C638.8 95.4666 638.533 94.3999 636.667 95.1999C611.6 104.8 594.4 97.5999 594.133 77.4666C593.867 57.3332 611.867 49.5999 635.733 59.5999C637.067 60.1332 637.333 58.2666 637.067 51.1999L636.667 42.2666L631.333 40.3999C623.867 37.5999 603.333 36.9332 596.667 39.0666Z" fill="url(#paint5_linear_97_424)"/>
<path d="M669.334 39.4664C665.334 40.5331 660.267 42.5331 658 43.7331C654.134 45.9998 654 46.5331 653.6 56.5331L653.2 67.0664L657.467 63.4664C670.267 52.6664 688.8 50.2664 693.334 58.7998C696.134 63.9998 694.934 65.0664 680.4 69.8664C656.267 77.9998 650.667 82.5331 649.6 94.9331C648.934 103.333 652.4 109.466 660 113.6C666.4 117.2 679.6 116.266 688.534 111.733L694.934 108.533L698.934 112.4C702.667 116.133 703.2 116.266 711.734 115.6C716.667 115.2 723.2 113.866 726.4 112.533C731.867 110.266 732 110.133 732 103.866V97.3331L727.334 99.5998C719.334 103.466 718.667 101.733 718.667 76.1331C718.667 49.8664 717.6 46.6664 707.2 41.3331C699.067 37.1998 680.8 36.2664 669.334 39.4664ZM691.734 97.5998C683.6 103.733 674.667 101.2 674.667 92.6664C674.667 87.5998 676.934 85.3331 686.667 80.7998L694 77.3331L694.4 86.2664C694.8 94.2664 694.534 95.4664 691.734 97.5998Z" fill="url(#paint6_linear_97_424)"/>
<path d="M780.667 39.7332C776.4 42.3998 771.2 48.5332 767.6 55.3332C765.467 59.3332 765.467 59.3332 765.333 48.9332V38.6665H753.333H741.333V76.6665V114.667H753.333H765.333V97.5998V80.6665L770.4 72.1332C773.733 66.3998 776.8 62.9332 779.733 61.5998C784.267 59.3332 786.267 59.7332 797.467 64.5332C799.2 65.3332 800.133 63.4665 802.4 55.4665C804 49.9998 805.333 44.9332 805.333 44.2665C805.333 42.1332 794.267 37.3332 789.2 37.3332C786.667 37.3332 782.8 38.3998 780.667 39.7332Z" fill="url(#paint7_linear_97_424)"/>
<path d="M832.4 39.5999C818.4 44.5333 807.733 59.8666 807.467 75.3333C807.2 92.1333 814.533 104.533 828.933 111.6C842.933 118.4 867.733 117.2 881.067 109.067C885.067 106.667 885.333 106 885.333 98.7999V91.1999L876.4 95.5999C865.733 100.8 857.467 102.133 849.6 99.9999C842 97.9999 834.8 91.3333 833.467 84.9333L832.267 79.9999H859.6H887.067L886.4 71.5999C884.667 51.0666 868.667 37.1999 846.933 37.4666C842 37.4666 835.467 38.3999 832.4 39.5999ZM856.8 53.9999C861.067 55.7333 865.333 62.1333 865.333 66.6666C865.333 67.4666 859.467 67.9999 849.333 67.9999C831.733 67.9999 831.333 67.7333 835.467 59.8666C839.067 52.9333 848.133 50.3999 856.8 53.9999Z" fill="url(#paint8_linear_97_424)"/>
<path d="M309.2 138C292.8 143.2 284 154 284 168.533C284.133 186 292.4 195.066 317.467 204.8C333.467 211.066 341.333 216.133 341.333 220.4C341.333 221.466 340.133 223.866 338.667 225.733C332.933 232.933 314.667 231.733 297.333 223.066C291.867 220.266 286.933 217.866 286.4 217.6C285.733 217.333 285.333 222.533 285.333 229.333V241.466L292.8 244.8C315.333 254.8 341.6 254.4 356.933 243.866C372 233.466 374.933 211.2 363.067 197.466C357.333 190.666 351.067 187.066 333.333 180C318.133 174 313.333 170.533 313.333 165.733C313.333 155.466 338.133 155.6 363.067 166C365.067 166.8 365.333 165.866 365.333 155.6V144.133L354.4 140.533C340.533 136.133 318.933 134.933 309.2 138Z" fill="url(#paint9_linear_97_424)"/>
<path d="M466.667 194V250.667H479.333H492V226C492 198.533 492.4 197.067 500.8 191.867C506.8 188.267 513.733 189.2 517.067 194.267C518.933 197.333 519.333 201.867 519.733 224.267L520.267 250.667H532.133H544V222.667C544 192.667 543.2 188.4 536.933 181.467C527.067 170.8 506.267 170.933 495.333 181.867L492 185.2V161.333V137.333H479.333H466.667V194Z" fill="url(#paint10_linear_97_424)"/>
<path d="M761.333 194V250.667H773.333H785.333V194V137.333H773.333H761.333V194Z" fill="url(#paint11_linear_97_424)"/>
<path d="M410 175.067C401.733 177.867 397.067 180.667 391.867 186.267C384.8 193.6 382.267 199.467 381.6 210.133C380.8 223.467 383.733 232 392.267 240.267C401.333 249.067 412.8 252.667 429.2 251.6C435.467 251.2 443.067 250 446 248.933L451.333 247.067L451.733 238.667C452.133 231.467 451.867 230.4 450 231.2C424.933 240.8 407.733 233.6 407.467 213.467C407.2 193.333 425.2 185.6 449.067 195.6C450.4 196.133 450.667 194.267 450.4 187.2L450 178.267L444.667 176.4C437.2 173.6 416.667 172.933 410 175.067Z" fill="url(#paint12_linear_97_424)"/>
<path d="M588.4 175.2C570.933 180.8 560.8 194.4 560.8 212.667C560.8 228.533 568.4 240.667 582.4 247.6C589.2 250.933 591.467 251.333 603.333 251.333C615.733 251.333 617.333 251.067 625.6 246.933C641.067 239.333 647.333 228.133 646.4 210.133C645.6 193.067 636 180.8 619.467 175.6C611.2 172.933 596.267 172.8 588.4 175.2ZM611.333 190.133C617.867 193.2 620.533 199.733 620.533 212.667C620.533 223.733 618.667 229.067 613.6 233.733C607.2 239.6 594 237.2 590 229.333C584.933 219.6 585.867 201.467 591.6 194.533C597.333 187.867 603.6 186.4 611.333 190.133Z" fill="url(#paint13_linear_97_424)"/>
<path d="M685.733 175.2C668.267 180.8 658.133 194.4 658.133 212.667C658.133 228.533 665.733 240.667 679.733 247.6C686.533 250.933 688.8 251.333 700.667 251.333C713.067 251.333 714.667 251.067 722.933 246.933C738.4 239.333 744.667 228.133 743.733 210.133C742.933 193.067 733.333 180.8 716.8 175.6C708.533 172.933 693.6 172.8 685.733 175.2ZM708.667 190.133C715.2 193.2 717.867 199.733 717.867 212.667C717.867 223.733 716 229.067 710.933 233.733C704.533 239.6 691.333 237.2 687.333 229.333C682.267 219.6 683.2 201.467 688.933 194.533C694.667 187.867 700.933 186.4 708.667 190.133Z" fill="url(#paint14_linear_97_424)"/>
<defs>
<linearGradient id="paint0_linear_97_424" x1="108.322" y1="296.5" x2="246.369" y2="8.44323" gradientUnits="userSpaceOnUse">
<stop stop-color="#00F69E"/>
<stop offset="1" stop-color="#1AEFE2"/>
</linearGradient>
<linearGradient id="paint1_linear_97_424" x1="321.833" y1="136.265" x2="395.054" y2="19.9007" gradientUnits="userSpaceOnUse">
<stop stop-color="#00F69E"/>
<stop offset="1" stop-color="#1AEFE2"/>
</linearGradient>
<linearGradient id="paint2_linear_97_424" x1="539.027" y1="134.686" x2="619.127" y2="47.3538" gradientUnits="userSpaceOnUse">
<stop stop-color="#00F69E"/>
<stop offset="1" stop-color="#1AEFE2"/>
</linearGradient>
<linearGradient id="paint3_linear_97_424" x1="487.845" y1="134.468" x2="547.446" y2="107.592" gradientUnits="userSpaceOnUse">
<stop stop-color="#00F69E"/>
<stop offset="1" stop-color="#1AEFE2"/>
</linearGradient>
<linearGradient id="paint4_linear_97_424" x1="415.658" y1="129.746" x2="457.716" y2="38.9908" gradientUnits="userSpaceOnUse">
<stop stop-color="#00F69E"/>
<stop offset="1" stop-color="#1AEFE2"/>
</linearGradient>
<linearGradient id="paint5_linear_97_424" x1="598.982" y1="129.406" x2="643.772" y2="43.2689" gradientUnits="userSpaceOnUse">
<stop stop-color="#00F69E"/>
<stop offset="1" stop-color="#1AEFE2"/>
</linearGradient>
<linearGradient id="paint6_linear_97_424" x1="685.643" y1="129.601" x2="726.561" y2="37.8883" gradientUnits="userSpaceOnUse">
<stop stop-color="#00F69E"/>
<stop offset="1" stop-color="#1AEFE2"/>
</linearGradient>
<linearGradient id="paint7_linear_97_424" x1="769.363" y1="128.178" x2="815.947" y2="46.0845" gradientUnits="userSpaceOnUse">
<stop stop-color="#00F69E"/>
<stop offset="1" stop-color="#1AEFE2"/>
</linearGradient>
<linearGradient id="paint8_linear_97_424" x1="842.324" y1="129.746" x2="884.383" y2="38.9908" gradientUnits="userSpaceOnUse">
<stop stop-color="#00F69E"/>
<stop offset="1" stop-color="#1AEFE2"/>
</linearGradient>
<linearGradient id="paint9_linear_97_424" x1="321.833" y1="272.265" x2="395.054" y2="155.901" gradientUnits="userSpaceOnUse">
<stop stop-color="#00F69E"/>
<stop offset="1" stop-color="#1AEFE2"/>
</linearGradient>
<linearGradient id="paint10_linear_97_424" x1="500.536" y1="270.468" x2="574.815" y2="162.54" gradientUnits="userSpaceOnUse">
<stop stop-color="#00F69E"/>
<stop offset="1" stop-color="#1AEFE2"/>
</linearGradient>
<linearGradient id="paint11_linear_97_424" x1="771.845" y1="270.468" x2="831.446" y2="243.592" gradientUnits="userSpaceOnUse">
<stop stop-color="#00F69E"/>
<stop offset="1" stop-color="#1AEFE2"/>
</linearGradient>
<linearGradient id="paint12_linear_97_424" x1="412.315" y1="265.406" x2="457.105" y2="179.269" gradientUnits="userSpaceOnUse">
<stop stop-color="#00F69E"/>
<stop offset="1" stop-color="#1AEFE2"/>
</linearGradient>
<linearGradient id="paint13_linear_97_424" x1="598.329" y1="264.933" x2="637.754" y2="172.514" gradientUnits="userSpaceOnUse">
<stop stop-color="#00F69E"/>
<stop offset="1" stop-color="#1AEFE2"/>
</linearGradient>
<linearGradient id="paint14_linear_97_424" x1="695.662" y1="264.933" x2="735.087" y2="172.514" gradientUnits="userSpaceOnUse">
<stop stop-color="#00F69E"/>
<stop offset="1" stop-color="#1AEFE2"/>
</linearGradient>
</defs>
</svg>
