<svg width="1590" height="960" viewBox="0 0 1590 960" fill="none" xmlns="http://www.w3.org/2000/svg">
<path d="M188.625 697.341C188.625 697.341 214.625 696.341 215.625 704.341C216.625 712.341 213.625 716.341 206.625 716.341C199.625 716.341 187.625 724.341 170.625 723.341C153.625 722.341 131.625 714.341 114.625 713.341C97.6246 712.341 61.9246 712.641 61.9246 712.641C61.9246 712.641 32.6246 685.641 30.6246 679.941C28.6246 674.241 71.6246 674.241 87.6246 680.241C103.625 686.241 103.625 696.241 121.625 690.241C139.625 684.241 150.925 679.941 167.325 686.541C183.625 693.341 188.625 697.341 188.625 697.341Z" fill="black" fill-opacity="0.04"/>
<path d="M10.6245 635.341C6.3245 631.741 -18.3755 493.341 26.6245 464.341C55.7245 445.541 21.7245 396.641 55.6245 392.341C80.8245 389.141 50.8245 379.241 72.6245 347.541C94.4245 315.841 90.9245 326.141 101.825 323.041C112.725 319.941 125.625 326.141 136.425 326.141C147.225 326.141 154.725 322.041 165.625 307.741C176.525 293.441 188.725 274.041 209.125 302.641C217.125 313.941 207.725 330.241 221.325 334.341C234.925 338.441 257.325 354.741 265.525 367.041C273.725 379.341 282.525 395.641 289.325 397.641C296.125 399.641 326.025 386.441 330.125 375.141C334.225 363.841 342.325 352.641 350.525 350.641C358.725 348.641 380.425 337.341 386.525 330.241C392.625 323.141 392.625 314.941 404.225 321.041C415.725 327.141 404.925 349.641 428.025 335.341C451.125 321.041 447.925 383.241 454.725 390.341C461.525 397.441 486.425 364.941 496.625 366.941C506.825 368.941 511.525 361.841 523.125 368.941C534.625 376.041 544.825 399.541 561.125 400.641C577.425 401.641 548.225 391.441 556.325 402.641C564.525 413.841 558.325 440.441 558.325 440.441L567.625 665.341L78.6245 648.341C48.4245 647.741 10.6245 635.341 10.6245 635.341Z" fill="#F58224"/>
<path d="M211.332 360.005C211.332 360.005 208.432 346.805 198.132 350.505C187.832 354.205 181.232 363.005 183.432 367.405C185.632 371.805 190.832 378.405 190.832 378.405L211.332 360.005Z" fill="#A5121F"/>
<path d="M136.832 430.605L128.932 480.405C128.932 480.405 136.832 483.405 139.832 490.505C142.832 497.605 141.732 499.405 141.732 499.405C141.732 499.405 140.632 501.205 137.232 498.805C133.832 496.405 132.532 490.505 132.532 490.505C132.532 490.505 130.832 485.305 130.132 486.305C129.832 486.805 132.132 491.005 131.432 492.205C130.832 493.305 129.532 491.205 128.532 489.305C127.739 487.854 126.765 486.51 125.632 485.305C124.582 484.233 123.795 482.932 123.332 481.505C122.732 478.505 127.232 426.305 127.232 426.305L137.532 431.005L136.832 430.605Z" fill="#A5121F"/>
<path d="M125.932 377.305C125.932 377.305 104.932 355.105 114.632 344.405C124.332 333.705 130.432 332.805 134.032 336.705C137.532 340.605 137.532 343.505 137.532 343.505C137.532 343.505 130.532 341.605 127.832 345.405C125.132 349.205 122.532 354.105 122.532 356.005C122.632 357.905 127.532 372.405 125.932 377.305Z" fill="#A5121F"/>
<path d="M110.433 618.205L108.333 626.705C108.333 626.705 114.633 630.605 118.133 628.205V621.305L110.433 618.205Z" fill="#A5121F"/>
<path d="M116.733 489.505C116.733 489.505 120.233 523.005 119.533 530.605C118.833 538.205 111.133 574.705 110.433 580.005C109.733 585.305 104.833 610.905 107.633 618.005C109.933 623.705 117.633 622.805 120.533 622.305C120.876 622.231 121.191 622.06 121.439 621.811C121.687 621.563 121.859 621.248 121.933 620.905C124.133 611.305 139.433 546.105 142.733 541.205C146.233 535.905 129.433 497.805 129.433 497.805L116.733 489.505Z" fill="#A5121F"/>
<path d="M140.432 389.405C139.632 388.005 138.732 386.205 138.032 384.605C136.432 381.205 136.432 379.405 135.632 376.005C135.516 375.378 135.449 374.743 135.432 374.105C135.432 374.105 132.332 367.405 129.132 368.305C127.332 368.805 124.932 367.305 123.232 366.005C123.343 366.188 123.412 366.393 123.432 366.605C124.032 368.505 123.732 371.905 123.532 373.505C123.497 373.753 123.515 374.006 123.584 374.248C123.653 374.489 123.771 374.713 123.932 374.905C124.532 375.805 125.432 377.905 124.232 382.105C123.332 385.505 122.132 386.705 121.332 387.105C120.991 387.262 120.704 387.517 120.508 387.837C120.312 388.158 120.216 388.53 120.232 388.905V390.405C120.222 390.662 120.263 390.919 120.354 391.159C120.444 391.4 120.582 391.62 120.76 391.807C120.937 391.993 121.149 392.142 121.385 392.245C121.621 392.348 121.875 392.402 122.132 392.405H138.732C139.075 392.386 139.407 392.281 139.698 392.099C139.99 391.918 140.231 391.667 140.4 391.369C140.569 391.07 140.661 390.734 140.667 390.391C140.672 390.048 140.592 389.709 140.432 389.405Z" fill="#A5121F"/>
<path d="M130.732 372.305C131.619 372.043 132.568 372.077 133.434 372.402C134.3 372.727 135.036 373.325 135.532 374.105C135.728 371.782 136.338 369.513 137.332 367.405C137.332 367.405 138.132 364.805 139.732 364.005C137.091 364.528 134.373 364.528 131.732 364.005C129.132 363.472 126.457 363.405 123.832 363.805L122.232 363.905C122.726 364.511 123.13 365.184 123.432 365.905C125.032 367.305 128.832 372.805 130.732 372.305Z" fill="#A5121F"/>
<path d="M107.632 625.105C107.632 625.105 116.732 629.005 119.532 627.405L132.832 635.905C132.832 635.905 134.932 639.005 132.832 639.805C130.732 640.605 112.432 636.705 108.232 635.905C108.332 635.905 101.332 636.705 107.632 625.105Z" fill="#A5121F"/>
<path d="M134.732 336.805C134.732 336.805 142.732 361.605 140.732 368.005C138.732 374.505 121.632 363.705 121.632 363.705L119.632 336.805H134.732Z" fill="#A5121F"/>
<path d="M124.533 375.505C124.533 375.505 100.633 350.705 111.633 338.905C122.633 327.105 129.733 326.005 133.733 330.305C137.733 334.605 137.733 337.805 137.733 337.805C137.733 337.805 129.733 335.605 126.633 340.005C123.633 344.305 121.633 349.705 121.633 351.805C121.633 353.905 126.333 370.105 124.533 375.505Z" fill="#A5121F"/>
<path d="M152.932 445.105L136.332 430.805C136.332 430.805 136.432 469.705 134.732 474.405C132.932 479.105 122.632 477.105 121.932 475.905C116.932 467.505 117.132 415.405 120.132 407.805C123.132 400.205 144.232 426.205 144.232 426.205L152.932 445.105Z" fill="#A5121F"/>
<path d="M111.332 575.205L110.532 579.305L131.832 579.905L133.532 572.905L111.332 575.205Z" fill="#A5121F"/>
<path d="M140.032 573.805L140.232 580.205L162.232 579.905L162.432 572.905L140.032 573.805Z" fill="#A5121F"/>
<path d="M112.833 480.105C112.833 480.105 111.533 488.105 153.433 484.505C153.433 484.505 152.533 473.905 152.533 471.005C152.533 468.105 116.433 474.905 116.433 474.905L112.833 480.105Z" fill="#A5121F"/>
<path d="M119.932 409.205C119.932 409.205 131.332 432.405 151.632 445.005V437.305L125.232 409.305L120.332 406.405L119.932 409.205Z" fill="#A5121F"/>
<path d="M145.532 623.605V631.305C146.835 631.96 148.274 632.301 149.732 632.301C151.191 632.301 152.629 631.96 153.932 631.305V622.105L145.532 623.605Z" fill="#A5121F"/>
<path d="M146.632 471.105C148.264 471.797 149.68 472.914 150.735 474.338C151.79 475.762 152.445 477.442 152.632 479.205C154.532 494.405 159.532 534.505 161.732 541.905C164.032 549.305 161.732 598.105 160.732 617.005C160.432 621.905 157.032 625.905 152.632 626.305C152.332 626.305 151.932 626.405 151.632 626.405C146.732 626.705 142.632 622.605 142.232 617.305C141.232 603.905 139.232 574.505 140.532 556.605C140.659 555.038 140.419 553.463 139.832 552.005C136.832 544.305 126.732 519.005 118.132 508.705C117.194 507.563 116.512 506.233 116.132 504.805C114.732 499.505 111.732 486.405 113.332 473.405C114.832 460.405 136.432 467.105 146.632 471.105Z" fill="#A5121F"/>
<path d="M144.132 629.705C144.132 629.705 149.732 632.805 154.632 629.705C154.632 629.705 169.332 632.805 170.732 634.305C172.132 635.805 172.132 637.405 171.432 638.205C170.732 639.005 163.032 639.005 158.132 639.705C153.232 640.505 145.532 639.705 145.532 639.705C145.532 639.705 139.932 639.805 144.132 629.705Z" fill="#A5121F"/>
<path d="M125.433 385.205C129.104 385.874 132.81 386.342 136.533 386.605C137.704 386.694 138.83 387.093 139.796 387.761C140.763 388.429 141.534 389.341 142.033 390.405C145.133 396.905 150.633 409.105 151.233 414.705C151.833 421.805 151.933 462.305 154.133 471.605C154.536 473.163 154.431 474.81 153.833 476.305C153.689 476.585 153.521 476.853 153.333 477.105C152.733 477.805 132.333 486.805 116.533 482.105C115.148 481.636 113.943 480.75 113.084 479.568C112.224 478.386 111.752 476.966 111.733 475.505C111.233 464.105 110.033 435.305 110.533 428.605C110.941 421.411 110.941 414.199 110.533 407.005C110.516 406.403 110.549 405.801 110.633 405.205C112.01 398.452 115.189 392.198 119.833 387.105C120.521 386.33 121.399 385.747 122.381 385.414C123.363 385.081 124.414 385.009 125.433 385.205V385.205Z" fill="#A5121F"/>
<path d="M250.333 563.705C250.433 564.005 250.633 564.305 250.733 564.605C251.304 565.963 251.544 567.437 251.433 568.905C250.894 577.696 250.861 586.51 251.333 595.305L239.533 601.905C243.033 588.405 247.233 573.205 250.333 563.705Z" fill="#A5121F"/>
<path d="M218.633 633.405L219.833 629.005C222.333 630.705 225.833 630.905 228.433 630.605V635.405C225.533 635.705 220.733 634.205 218.633 633.405Z" fill="#A5121F"/>
<path d="M256.633 638.005V632.305C258.381 633.716 260.59 634.428 262.833 634.305C263.169 634.321 263.506 634.288 263.833 634.205C264.316 634.212 264.795 634.11 265.233 633.905V637.705C262.033 639.305 258.533 638.605 256.633 638.005Z" fill="#A5121F"/>
<path d="M239.433 601.905L216.933 614.405C217.733 605.105 219.933 594.005 220.433 590.805C221.133 585.805 229.133 551.605 229.833 544.505C230.133 541.205 229.533 532.805 228.833 524.605C237.233 534.205 246.833 555.605 250.233 563.605C247.233 573.205 243.033 588.405 239.433 601.905Z" fill="#A5121F"/>
<path d="M236.833 611.805L216.833 622.805C216.67 620.006 216.703 617.199 216.933 614.405L239.433 601.905C238.533 605.305 237.633 608.705 236.833 611.805Z" fill="#A5121F"/>
<path d="M217.633 626.505C217.171 625.322 216.901 624.073 216.833 622.805L236.833 611.805C236.433 613.405 236.033 615.005 235.633 616.405L217.633 626.505Z" fill="#A5121F"/>
<path d="M230.933 630.405C230.333 630.505 229.433 630.605 228.433 630.705V629.405L220.533 626.505L219.833 629.005C218.874 628.358 218.112 627.458 217.633 626.405L235.633 616.405C234.033 622.405 232.833 627.105 232.333 629.105C232.256 629.437 232.081 629.738 231.832 629.969C231.582 630.201 231.269 630.353 230.933 630.405Z" fill="#A5121F"/>
<path d="M219.833 629.105L220.533 626.605L228.433 629.505V630.805C225.733 630.905 222.233 630.805 219.833 629.105Z" fill="#A5121F"/>
<path d="M251.333 568.905C251.46 567.436 251.219 565.958 250.633 564.605C250.542 564.288 250.407 563.985 250.233 563.705C251.733 558.905 252.933 555.505 253.633 554.605C257.233 549.605 239.933 514.005 239.933 514.005L226.933 506.205C226.933 506.205 227.933 515.305 228.833 524.805C228.633 524.605 228.433 524.305 228.233 524.105C227.288 523.065 226.573 521.839 226.133 520.505C224.007 513.363 222.896 505.957 222.833 498.505C223.033 498.305 223.233 498.205 223.433 498.005C223.763 498.321 224.181 498.53 224.633 498.605C231.433 501.005 239.333 500.805 246.233 499.805C248.833 503.305 251.433 506.705 252.833 508.205C251.233 508.305 250.033 508.305 250.033 508.305L252.233 510.505C255.353 510.901 258.512 510.901 261.633 510.505C265.933 509.805 263.833 506.905 263.833 506.905L263.133 506.205L261.833 506.905C261.733 506.905 261.733 506.905 261.633 507.005C261.116 505.587 260.48 504.216 259.733 502.905C259.635 502.683 259.5 502.48 259.333 502.305C258.833 501.705 257.633 500.005 255.933 497.705C258.514 496.987 261.052 496.119 263.533 495.105C263.633 495.505 263.733 496.005 263.833 496.505C265.733 510.705 270.933 548.205 273.233 555.205C274.333 558.405 274.333 569.605 274.033 582.605L251.233 595.305C250.811 586.509 250.844 577.697 251.333 568.905V568.905Z" fill="#A5121F"/>
<path d="M251.632 603.705C251.532 601.005 251.332 598.205 251.232 595.405L274.032 582.705C273.932 585.605 273.832 588.605 273.732 591.605L251.632 603.705Z" fill="#A5121F"/>
<path d="M251.833 607.405C251.733 606.205 251.733 604.905 251.633 603.705L273.833 591.505C273.833 592.805 273.733 594.005 273.733 595.305L251.833 607.405Z" fill="#A5121F"/>
<path d="M251.833 607.405L273.733 595.205C273.533 601.405 273.233 607.605 272.933 613.005L253.033 624.005C252.633 619.605 252.233 613.805 251.833 607.405Z" fill="#A5121F"/>
<path d="M265.333 633.905V630.205L256.633 631.605V632.205C255.649 631.407 254.833 630.421 254.232 629.305C253.631 628.19 253.258 626.966 253.133 625.705C253.133 625.205 253.033 624.605 253.033 624.005L272.933 613.005C272.733 617.805 272.433 622.105 272.233 625.405C272.11 627.364 271.38 629.235 270.143 630.759C268.906 632.283 267.224 633.382 265.333 633.905Z" fill="#A5121F"/>
<path d="M262.833 634.205C260.596 634.281 258.404 633.573 256.633 632.205V631.605L265.333 630.205V633.905C264.833 634.005 264.433 634.105 263.933 634.205H262.833Z" fill="#A5121F"/>
<path d="M240.033 513.905C240.033 513.905 257.333 549.505 253.733 554.505C253.033 555.505 251.833 558.805 250.333 563.605C246.933 555.705 237.433 534.205 228.933 524.605C228.033 515.105 227.033 506.005 227.033 506.005L240.033 513.905Z" fill="#A5121F"/>
<path d="M242.933 391.405C240.589 390.989 238.196 390.922 235.833 391.205C235.587 390.56 235.25 389.954 234.833 389.405C234.581 389.062 234.429 388.657 234.394 388.233C234.359 387.81 234.441 387.385 234.633 387.005C236.233 383.605 235.933 376.705 237.133 375.405C237.865 374.614 238.86 374.116 239.933 374.005C240.083 374.08 240.219 374.182 240.333 374.305C241.333 375.405 244.433 378.705 246.933 379.505C247.264 379.617 247.55 379.834 247.748 380.122C247.947 380.411 248.046 380.755 248.033 381.105C248.026 381.339 248.078 381.571 248.183 381.78C248.287 381.989 248.442 382.17 248.633 382.305C249.097 382.707 249.477 383.197 249.751 383.746C250.026 384.295 250.19 384.893 250.233 385.505C250.233 387.705 251.633 390.605 250.233 391.305C247.83 391.824 245.348 391.858 242.933 391.405V391.405Z" fill="#A5121F"/>
<path d="M235.633 408.405C235.915 407.791 236.149 407.156 236.333 406.505C237.133 403.605 236.833 401.905 236.333 401.005C236.493 400.849 236.62 400.662 236.705 400.456C236.791 400.25 236.835 400.028 236.833 399.805C237.115 397.837 237.013 395.834 236.533 393.905C237.681 394.76 239.109 395.152 240.533 395.005C243.433 394.305 246.133 399.905 246.133 399.905C246.113 400.44 246.147 400.976 246.233 401.505C246.933 404.405 246.933 405.805 248.433 408.705L249.033 409.905C248.74 409.823 248.436 409.789 248.133 409.805C243.94 409.608 239.765 409.14 235.633 408.405V408.405Z" fill="#A5121F"/>
<path d="M240.733 395.005C239.308 395.152 237.881 394.76 236.733 393.905C236.633 393.505 236.533 393.205 236.433 392.805C236.233 392.205 236.033 391.705 235.833 391.205C238.193 390.863 240.595 390.93 242.933 391.405C245.315 391.812 247.75 391.812 250.133 391.405C248.733 392.105 247.933 394.305 247.933 394.305C247.054 396.055 246.511 397.955 246.333 399.905C246.333 399.905 243.633 394.305 240.733 395.005Z" fill="#A5121F"/>
<path d="M257.733 488.905C256.033 488.305 254.133 487.705 251.933 487.005C252.337 486.489 252.619 485.888 252.758 485.247C252.897 484.606 252.888 483.942 252.733 483.305C253.25 482.662 253.557 481.876 253.611 481.052C253.664 480.229 253.462 479.409 253.033 478.705C251.354 476.234 249.372 473.983 247.133 472.005C246.221 471.215 245.649 470.105 245.533 468.905C245.033 465.105 244.033 456.505 245.133 452.105C245.233 451.805 245.233 451.505 245.333 451.205C245.533 450.805 245.833 450.405 246.033 449.905C255.633 432.605 250.933 429.005 244.433 423.205C239.433 418.705 231.333 416.405 227.933 415.605C228.318 414.972 228.752 414.37 229.233 413.805L229.933 410.905H229.633L231.233 409.305C231.706 408.858 232.281 408.533 232.909 408.359C233.536 408.185 234.196 408.166 234.833 408.305C235.133 408.305 235.433 408.405 235.733 408.405C235.37 409.36 234.702 410.168 233.833 410.705C233.546 410.841 233.301 411.052 233.125 411.316C232.949 411.581 232.848 411.888 232.833 412.205V413.505C232.831 413.729 232.873 413.951 232.958 414.158C233.043 414.365 233.168 414.553 233.326 414.712C233.484 414.87 233.673 414.995 233.88 415.08C234.087 415.164 234.309 415.207 234.533 415.205H249.333C249.626 415.205 249.915 415.129 250.17 414.984C250.426 414.84 250.639 414.631 250.79 414.38C250.941 414.128 251.025 413.841 251.032 413.548C251.039 413.254 250.971 412.964 250.833 412.705C250.333 411.905 249.833 410.905 249.333 409.905C249.966 410.021 250.566 410.279 251.085 410.66C251.605 411.041 252.031 411.535 252.333 412.105C255.333 417.705 261.833 430.505 262.433 436.105C263.133 442.905 263.133 482.505 265.633 490.005C265.933 490.88 265.933 491.83 265.633 492.705C265.434 493.381 265.13 494.023 264.733 494.605C264.436 494.837 264.096 495.007 263.733 495.105C263.26 493.688 262.476 492.396 261.437 491.323C260.399 490.25 259.133 489.424 257.733 488.905V488.905Z" fill="#A5121F"/>
<path d="M232.233 424.505C230.333 426.305 228.433 429.605 227.533 435.605C226.133 441.005 225.633 449.405 227.633 462.505C227.633 462.705 227.733 463.005 227.733 463.205C227.733 465.305 227.933 476.705 229.433 484.605C227.734 485.001 226.199 485.909 225.033 487.205C223.733 471.005 220.733 433.405 222.033 429.005C222.855 426.053 223.926 423.177 225.233 420.405C228.8 421.066 232.31 422.002 235.733 423.205C235.09 423.16 234.446 423.252 233.842 423.476C233.238 423.701 232.69 424.051 232.233 424.505V424.505Z" fill="#A5121F"/>
<path d="M239.833 424.905C244.233 427.005 248.033 430.005 248.633 434.005C249.218 438.105 248.255 442.276 245.933 445.705C246.333 439.305 245.433 430.805 239.833 424.905Z" fill="#A5121F"/>
<path d="M249.833 488.905C250.138 488.763 250.411 488.559 250.633 488.305C251.081 487.919 251.484 487.483 251.833 487.005C253.933 487.605 255.933 488.305 257.633 488.905C259.038 489.396 260.306 490.214 261.332 491.292C262.358 492.37 263.112 493.677 263.533 495.105C261.052 496.119 258.514 496.988 255.933 497.705C254.233 495.205 252.033 492.105 249.833 488.905Z" fill="#A5121F"/>
<path d="M225.533 494.505C225.533 494.205 225.333 491.405 224.933 487.105C226.099 485.809 227.634 484.901 229.333 484.505C229.933 487.805 230.833 490.505 232.033 491.605C236.333 495.905 239.933 493.805 239.933 493.805L241.333 493.105C242.733 495.105 244.433 497.405 246.133 499.705C239.233 500.705 231.333 500.905 224.533 498.505C224.114 498.346 223.712 498.145 223.333 497.905C223.915 497.522 224.411 497.021 224.789 496.436C225.168 495.851 225.421 495.193 225.533 494.505V494.505Z" fill="#A5121F"/>
<path d="M249.333 415.205H234.433C234.209 415.207 233.987 415.164 233.78 415.08C233.572 414.995 233.384 414.87 233.226 414.712C233.068 414.553 232.943 414.365 232.858 414.158C232.773 413.951 232.731 413.729 232.733 413.505V412.205C232.72 411.882 232.81 411.563 232.99 411.293C233.169 411.024 233.429 410.818 233.733 410.705C234.576 410.14 235.237 409.34 235.633 408.405C239.837 409.107 244.076 409.575 248.333 409.805C248.636 409.789 248.94 409.823 249.233 409.905C249.733 410.905 250.233 411.805 250.733 412.705C250.89 412.953 250.978 413.239 250.986 413.533C250.994 413.826 250.923 414.117 250.779 414.373C250.636 414.63 250.425 414.842 250.171 414.989C249.916 415.135 249.626 415.21 249.333 415.205V415.205Z" fill="#A5121F"/>
<path d="M227.633 462.405C225.733 449.305 226.133 440.905 227.533 435.505C226.733 440.805 226.833 448.305 228.333 458.805C228.333 459.005 228.433 459.305 228.433 459.505C228.433 462.005 228.633 476.605 230.833 484.105L229.333 484.405C227.833 476.505 227.633 465.205 227.633 463.005C227.733 462.905 227.733 462.705 227.633 462.405Z" fill="#A5121F"/>
<path d="M250.333 485.405C250.721 485.208 251.089 484.973 251.433 484.705C251.938 484.311 252.377 483.839 252.733 483.305C252.9 483.941 252.914 484.608 252.775 485.251C252.636 485.894 252.348 486.495 251.933 487.005L248.933 486.105L250.333 485.405Z" fill="#A5121F"/>
<path d="M248.933 486.105C249.933 486.405 251.033 486.705 251.933 487.005C251.582 487.482 251.18 487.918 250.733 488.305C250.433 488.505 250.233 488.705 249.933 488.905C249.433 488.105 248.933 487.305 248.333 486.505L248.933 486.105Z" fill="#A5121F"/>
<path d="M232.733 488.105C235.733 491.105 238.333 491.005 239.733 490.605C239.833 490.905 240.033 491.105 240.133 491.405C240.533 491.905 240.933 492.505 241.433 493.205L240.033 493.905C240.033 493.905 236.433 496.105 232.133 491.705C230.933 490.505 230.133 487.805 229.433 484.605L230.933 484.305C231.288 485.674 231.898 486.963 232.733 488.105V488.105Z" fill="#A5121F"/>
<path d="M259.333 502.205C259.433 502.405 259.633 502.605 259.733 502.805C260.48 504.116 261.116 505.487 261.633 506.905C258.8 507.708 255.876 508.145 252.933 508.205C251.533 506.705 248.933 503.305 246.333 499.805C249.611 499.333 252.852 498.631 256.033 497.705C257.533 499.905 258.833 501.605 259.333 502.205Z" fill="#A5121F"/>
<path d="M249.633 489.005C249.685 489.001 249.733 488.979 249.77 488.942C249.807 488.906 249.829 488.857 249.833 488.805C251.933 492.105 254.133 495.205 255.933 497.605C252.752 498.531 249.511 499.232 246.233 499.705C244.533 497.405 242.833 495.105 241.433 493.105L249.633 489.005Z" fill="#A5121F"/>
<path d="M241.432 493.105C241.032 492.505 240.532 491.905 240.132 491.305C239.941 491.072 239.804 490.798 239.732 490.505C240.074 490.393 240.408 490.259 240.732 490.105L248.332 486.305C248.832 487.105 249.332 487.905 249.932 488.705C249.832 488.705 249.832 488.805 249.732 488.905L241.432 493.105Z" fill="#A5121F"/>
<path d="M248.633 433.905C248.033 429.905 244.233 427.005 239.833 424.805L239.633 424.605C239.116 424.044 238.478 423.608 237.768 423.331C237.057 423.054 236.293 422.942 235.533 423.005C232.11 421.802 228.6 420.866 225.033 420.205C225.809 418.55 226.747 416.976 227.833 415.505C231.233 416.305 239.233 418.605 244.333 423.105C250.833 428.905 255.533 432.505 245.933 449.805C245.633 450.305 245.433 450.705 245.233 451.105C245.616 449.294 245.85 447.454 245.933 445.605C248.326 442.207 249.295 438.008 248.633 433.905V433.905Z" fill="#A5121F"/>
<path d="M246.432 475.605C245.521 474.815 244.948 473.705 244.832 472.505C244.332 468.705 243.332 460.105 244.432 455.705C244.756 454.355 244.99 452.986 245.132 451.605C245.232 451.505 245.232 451.405 245.332 451.205C245.232 451.505 245.232 451.805 245.132 452.105C244.032 456.505 245.032 465.105 245.532 468.905C245.692 470.092 246.257 471.187 247.132 472.005C249.371 473.983 251.354 476.234 253.032 478.705C253.462 479.409 253.664 480.229 253.61 481.053C253.557 481.876 253.25 482.663 252.732 483.305C252.643 482.956 252.508 482.62 252.332 482.305C250.624 479.857 248.645 477.609 246.432 475.605V475.605Z" fill="#A5121F"/>
<path d="M232.233 424.505C233.133 423.605 235.333 420.905 236.533 420.805C237.933 421.305 240.133 423.005 241.533 423.605C247.033 429.605 246.333 439.305 245.933 445.705L245.333 446.605C245.333 440.605 243.933 433.505 239.033 428.305C238.06 427.292 236.727 426.704 235.324 426.666C233.92 426.629 232.558 427.146 231.533 428.105C230.033 429.505 226.833 431.205 225.833 435.005C226.733 428.905 230.333 426.205 232.233 424.505Z" fill="#A5121F"/>
<path d="M251.433 484.705C251.106 484.995 250.734 485.231 250.333 485.405L247.133 487.005C246.833 486.905 248.233 486.005 247.933 485.905C247.243 484.903 246.198 484.201 245.009 483.941C243.821 483.681 242.578 483.883 241.533 484.505C237.004 484.046 232.437 484.147 227.933 484.805C225.733 477.205 227.233 463.805 227.233 461.305V459.205C225.633 448.705 225.033 440.305 225.833 435.005C226.833 431.205 230.033 429.505 231.533 428.105C232.559 427.147 233.92 426.63 235.324 426.668C236.727 426.705 238.06 427.293 239.033 428.305C243.933 433.505 245.333 440.605 245.333 446.605C244.408 447.834 243.333 448.943 242.133 449.905C242.133 449.905 236.733 466.005 245.033 451.605C244.833 453.205 244.533 454.705 244.333 455.705C243.233 460.105 244.233 468.705 244.733 472.505C244.892 473.692 245.458 474.787 246.333 475.605C248.572 477.583 250.554 479.834 252.233 482.305C252.409 482.62 252.543 482.956 252.633 483.305C252.341 483.855 251.931 484.333 251.433 484.705V484.705Z" fill="#A5121F"/>
<path d="M232.733 488.105C231.785 486.983 231.132 485.643 230.833 484.205C234.394 483.764 238.001 483.866 241.533 484.505C241.209 484.707 240.907 484.941 240.633 485.205C239.947 485.903 239.486 486.79 239.308 487.752C239.13 488.714 239.243 489.708 239.633 490.605C238.333 490.905 235.733 491.005 232.733 488.105Z" fill="#A5121F"/>
<path d="M247.933 485.905C248.22 486.019 248.524 486.086 248.833 486.105L248.233 486.405C248.172 486.357 248.122 486.297 248.087 486.228C248.053 486.158 248.034 486.082 248.033 486.005L247.933 485.905Z" fill="#A5121F"/>
<path d="M247.933 485.905C245.833 485.405 243.633 484.905 241.533 484.505C242.577 483.878 243.821 483.673 245.011 483.933C246.201 484.194 247.246 484.899 247.933 485.905V485.905Z" fill="#A5121F"/>
<path d="M240.633 485.205C240.908 484.941 241.209 484.707 241.533 484.505C243.733 484.905 245.833 485.305 247.933 485.905C247.933 486.005 248.033 486.005 248.033 486.105C248.094 486.153 248.143 486.213 248.178 486.283C248.213 486.352 248.231 486.428 248.233 486.505L240.633 490.305C240.308 490.46 239.974 490.593 239.633 490.705C239.263 489.788 239.16 488.784 239.337 487.811C239.514 486.837 239.964 485.934 240.633 485.205Z" fill="#A5121F"/>
<path d="M245.333 446.605L245.933 445.705C245.836 447.553 245.603 449.392 245.233 451.205C245.133 451.305 245.133 451.405 245.033 451.605C245.235 449.946 245.335 448.276 245.333 446.605V446.605Z" fill="#A5121F"/>
<path d="M239.733 427.305C239.833 427.305 239.833 427.405 239.933 427.405C238.533 427.005 237.033 426.605 235.633 426.305C237.064 426.267 238.48 426.613 239.733 427.305V427.305Z" fill="#A5121F"/>
<path d="M245.033 451.505C236.733 466.005 242.133 449.805 242.133 449.805C243.335 448.845 244.41 447.736 245.333 446.505C245.342 448.177 245.241 449.847 245.033 451.505V451.505Z" fill="#A5121F"/>
<path d="M217.633 633.105C217.978 633.205 218.313 633.339 218.633 633.505L218.333 634.605C218.333 634.605 224.833 638.205 228.433 636.005V635.605C228.918 635.635 229.402 635.532 229.833 635.305L231.133 636.105L220.933 641.705C219.733 641.705 217.733 641.905 215.333 642.105C214.533 640.805 214.433 638.305 217.633 633.105Z" fill="#A5121F"/>
<path d="M222.233 641.605H220.933L231.133 636.005L238.933 640.505C230.433 640.805 222.233 641.605 222.233 641.605Z" fill="#A5121F"/>
<path d="M218.133 643.205C217.628 643.248 217.12 643.17 216.651 642.979C216.181 642.788 215.764 642.489 215.433 642.105C217.289 641.856 219.159 641.722 221.033 641.705L218.133 643.205Z" fill="#A5121F"/>
<path d="M222.233 641.605C222.233 641.605 230.333 640.905 238.933 640.505L243.533 643.205C243.533 643.205 245.733 646.105 243.533 646.805C241.333 647.505 222.533 643.905 218.233 643.205H218.033L220.833 641.605H222.233Z" fill="#A5121F"/>
<path d="M218.333 634.505L218.633 633.405C220.733 634.105 225.533 635.705 228.433 635.505V635.905C224.833 638.105 218.333 634.505 218.333 634.505Z" fill="#A5121F"/>
<path d="M281.633 643.005C281.633 643.005 263.633 644.405 258.133 641.605C256.78 641.115 255.367 640.812 253.933 640.705C254.263 639.581 254.664 638.479 255.133 637.405C255.578 637.651 256.047 637.852 256.533 638.005V638.905C257.896 639.536 259.38 639.862 260.883 639.862C262.385 639.862 263.869 639.536 265.233 638.905V637.805C265.486 637.71 265.722 637.575 265.933 637.405C265.933 637.405 281.133 640.305 282.533 641.705C283.633 642.805 283.933 643.905 283.633 644.705C283.053 644.043 282.379 643.47 281.633 643.005V643.005Z" fill="#A5121F"/>
<path d="M269.632 646.805C264.532 647.505 256.632 646.805 256.632 646.805C256.632 646.805 252.332 646.805 253.932 640.705C255.37 640.788 256.787 641.092 258.132 641.605C263.632 644.405 281.632 643.005 281.632 643.005C282.373 643.52 283.075 644.088 283.732 644.705C283.632 644.905 283.532 645.205 283.332 645.305C282.632 646.105 274.632 646.105 269.632 646.805Z" fill="#A5121F"/>
<path d="M256.633 638.805V637.905C259.462 638.89 262.552 638.819 265.333 637.705V638.805C263.969 639.436 262.485 639.762 260.983 639.762C259.481 639.762 257.996 639.436 256.633 638.805Z" fill="#A5121F"/>
<path d="M253.733 509.005C255.933 510.405 260.933 509.005 261.633 508.305C261.833 508.105 261.733 507.605 261.533 506.905C261.633 506.905 261.633 506.905 261.733 506.805L263.033 506.105L263.733 506.805C263.733 506.805 265.933 509.705 261.533 510.405C258.412 510.801 255.253 510.801 252.133 510.405L249.933 508.205C249.933 508.205 251.033 508.205 252.733 508.105C253.233 508.605 253.533 508.805 253.733 509.005Z" fill="#A5121F"/>
<path d="M261.633 508.305C260.933 509.005 255.833 510.505 253.733 509.005C253.417 508.793 253.145 508.521 252.933 508.205C255.533 508.105 259.433 507.805 261.633 506.905C261.736 507.124 261.79 507.363 261.79 507.605C261.79 507.847 261.736 508.086 261.633 508.305V508.305Z" fill="#A5121F"/>
<path d="M232.733 371.905L234.933 377.705C236.533 382.005 234.533 386.705 233.433 388.805C233.278 389.131 233.225 389.495 233.278 389.851C233.331 390.207 233.49 390.539 233.733 390.805L234.333 391.405C234.756 391.933 235.125 392.502 235.433 393.105C235.533 393.305 235.633 393.405 235.633 393.605C236.014 395.517 236.048 397.481 235.733 399.405C235.688 399.828 235.794 400.253 236.033 400.605C236.154 400.758 236.255 400.926 236.333 401.105C236.069 401.417 235.722 401.648 235.333 401.771C234.944 401.895 234.528 401.907 234.133 401.805C233.933 401.705 233.633 401.705 233.433 401.505C232.033 400.805 223.333 397.205 221.133 394.305C218.933 391.405 219.733 387.805 219.733 385.605C219.733 383.405 216.833 379.105 216.133 376.905C215.333 374.605 216.233 368.205 220.533 369.005C224.233 369.805 227.833 367.505 229.333 364.005C229.733 363.205 230.233 362.805 232.033 363.205C235.633 363.905 232.033 366.805 237.133 365.405C242.233 364.005 240.733 374.105 240.033 374.105H239.933C239.893 374.067 239.846 374.038 239.794 374.021C239.742 374.004 239.687 373.998 239.633 374.005L232.733 371.905Z" fill="#A5121F"/>
<path d="M234.532 387.105C234.341 387.485 234.259 387.91 234.294 388.333C234.329 388.757 234.481 389.162 234.732 389.505C235.113 390.078 235.447 390.679 235.732 391.305L234.332 391.405L233.732 390.805C233.468 390.552 233.295 390.218 233.241 389.856C233.187 389.494 233.254 389.125 233.432 388.805C234.532 386.705 236.532 382.005 234.932 377.705L232.732 371.905L239.532 373.905C239.632 373.905 239.732 374.005 239.832 374.005C238.766 374.135 237.777 374.63 237.032 375.405C235.832 376.705 236.232 383.705 234.532 387.105Z" fill="#A5121F"/>
<path d="M235.733 399.305C236.047 397.381 236.014 395.417 235.633 393.505C235.533 393.305 235.533 393.205 235.433 393.005C235.809 393.306 236.21 393.574 236.633 393.805C237.012 395.748 237.113 397.734 236.933 399.705C236.846 400.134 236.676 400.542 236.433 400.905C236.355 400.726 236.254 400.558 236.133 400.405C235.996 400.258 235.89 400.085 235.821 399.896C235.752 399.707 235.722 399.506 235.733 399.305Z" fill="#A5121F"/>
<path d="M234.333 391.305L235.733 391.205C235.933 391.705 236.133 392.205 236.333 392.805C236.433 393.205 236.533 393.505 236.633 393.905C236.233 393.605 235.733 393.305 235.433 393.105C235.149 392.458 234.779 391.853 234.333 391.305V391.305Z" fill="#A5121F"/>
<path d="M222.933 497.405L223.533 498.005C223.333 498.205 223.133 498.305 222.933 498.505V497.405Z" fill="#A5121F"/>
<path d="M229.433 398.705C229.433 398.705 227.333 412.005 229.433 411.705C231.533 411.505 250.833 410.805 252.933 412.905C255.033 415.005 262.233 407.205 257.933 402.905C253.633 398.705 229.433 398.005 229.433 398.705Z" fill="#A5121F"/>
<path d="M257.233 410.105C257.233 410.105 265.033 422.205 267.233 432.905C269.333 443.605 263.633 455.705 263.633 459.905C263.556 462.061 263.792 464.217 264.333 466.305C264.333 466.305 257.933 460.605 255.033 462.005C252.133 463.405 260.033 414.305 252.933 411.505C245.833 408.705 257.233 410.105 257.233 410.105Z" fill="#A5121F"/>
<path d="M191.732 385.605C191.732 385.605 193.932 403.205 193.532 405.205C193.132 407.205 200.932 415.405 200.932 415.405L207.032 409.905C207.032 409.905 206.332 397.805 208.932 391.505C211.632 385.105 192.732 382.105 192.732 382.105L191.732 385.605Z" fill="#A5121F"/>
<path d="M199.832 361.705C206.132 358.805 213.432 363.105 214.532 369.905C215.182 374.981 215.249 380.114 214.732 385.205C213.032 406.605 201.232 397.705 198.132 393.705C195.032 389.605 192.632 383.005 192.632 383.005C192.632 383.005 191.232 383.505 188.832 379.805C186.432 376.005 186.332 371.605 188.432 373.205C192.932 376.505 194.032 372.705 194.732 370.505C195.132 369.005 194.632 364.105 199.832 361.705Z" fill="#A5121F"/>
<path d="M221.532 641.405C221.532 641.405 231.732 648.005 235.632 648.605C239.532 649.205 247.332 652.205 249.132 655.205C250.932 658.205 241.332 659.405 232.832 658.205C224.332 657.005 212.032 652.505 208.732 654.005C205.432 655.505 203.632 651.505 203.332 650.005C203.032 648.605 204.732 640.605 204.732 640.605L221.532 641.405Z" fill="#A5121F"/>
<path d="M198.432 638.705C198.432 638.705 203.932 645.905 205.532 648.005C207.132 650.105 226.532 654.005 229.632 656.105C232.732 658.205 227.532 662.405 221.532 662.105C215.532 661.805 213.832 661.205 205.532 660.005C199.995 659.252 194.419 658.818 188.832 658.705C188.832 658.705 183.632 660.005 181.132 656.705C178.632 653.405 178.032 649.805 179.232 647.705C180.432 645.605 183.832 644.605 183.832 640.605C183.832 636.605 198.432 638.705 198.432 638.705Z" fill="#A5121F"/>
<path d="M224.832 490.205C224.832 490.205 235.332 578.305 232.132 587.105C229.032 595.905 227.732 639.705 223.632 642.605C219.632 645.505 206.632 643.905 204.632 640.605C204.632 640.605 212.932 561.805 208.132 546.805C203.432 531.805 201.232 529.705 201.232 529.705C201.232 529.705 202.732 576.805 203.632 581.505C204.532 586.205 201.232 639.905 201.232 639.905C201.232 639.905 187.432 645.705 180.532 638.105C180.532 638.105 177.732 531.605 176.432 511.705C175.732 501.405 187.032 486.205 187.032 486.205L224.832 490.205Z" fill="#A5121F"/>
<path d="M225.732 497.505C225.732 497.505 201.032 513.605 181.232 495.905L183.532 488.205L225.732 490.005V497.505Z" fill="#A5121F"/>
<path d="M186.832 405.505C186.832 405.505 176.132 411.005 175.232 415.005C174.332 419.005 176.432 488.305 181.832 492.805C183.032 493.805 194.232 500.905 211.332 498.405C221.032 496.905 230.532 491.605 231.632 481.805C233.332 466.305 233.832 439.605 229.532 422.205C228.881 419.513 227.53 417.041 225.616 415.039C223.702 413.037 221.293 411.576 218.632 410.805L211.232 408.605L202.532 412.605L186.832 405.505Z" fill="#A5121F"/>
<path d="M206.932 403.105L216.932 409.905L209.232 410.105L202.132 415.905L191.732 411.905L181.132 407.005L190.432 403.105L200.932 408.505L206.932 403.105Z" fill="#A5121F"/>
<path d="M219.932 413.705C219.932 413.705 226.832 461.805 230.732 468.505L232.932 448.705C232.832 448.705 229.132 412.805 219.932 413.705Z" fill="#A5121F"/>
<path d="M200.957 504.189H210.157V498.989H200.957V504.189Z" fill="#A5121F"/>
<path d="M183.332 407.005C183.332 407.005 156.732 413.905 164.132 475.505L164.432 482.405C165.032 489.805 165.332 494.005 172.532 495.905C175.132 496.605 181.932 493.805 183.332 492.305C194.632 480.105 180.632 484.605 178.832 465.205C176.232 438.605 183.332 407.005 183.332 407.005Z" fill="#A5121F"/>
<path d="M203.132 476.105C203.132 476.105 195.332 472.605 187.332 475.905C187.232 476.005 187.032 476.005 186.932 476.105L191.432 480.605L201.332 477.905L203.132 476.105Z" fill="#A5121F"/>
<path d="M203.132 476.105V500.305C203.132 500.305 194.132 503.905 186.932 500.305V475.805C186.932 475.805 191.432 480.605 203.132 476.105Z" fill="#A5121F"/>
<path d="M187.832 482.405C187.832 482.405 185.132 480.605 183.332 480.605C181.532 480.605 179.732 485.105 180.632 487.805C181.532 490.505 187.832 495.005 187.832 495.005V482.405Z" fill="#A5121F"/>
<path d="M183.832 479.305C183.832 479.305 180.232 476.605 177.532 479.305C174.832 482.005 172.132 486.505 171.232 487.405C170.411 488.116 169.504 488.721 168.532 489.205C168.532 489.205 172.132 495.505 174.832 494.605C177.532 493.705 184.732 492.805 184.732 491.005C184.732 489.205 185.632 486.505 184.732 486.505C183.832 486.505 184.732 484.705 184.732 483.805C184.732 482.905 184.732 480.105 183.832 479.305Z" fill="#A5121F"/>
<path d="M703.624 704.341C703.624 704.341 731.624 711.341 724.624 714.341C717.624 717.341 692.624 713.341 683.624 715.341C674.624 717.341 633.624 742.341 612.624 732.341C591.624 722.341 523.624 716.341 516.624 716.341C509.624 716.341 460.624 705.341 457.624 702.341C454.624 699.341 563.624 672.341 574.624 676.341C585.624 680.341 597.624 701.341 615.624 696.341C624.824 693.741 635.324 695.441 643.424 697.641C653.775 700.45 664.554 701.331 675.224 700.241C685.024 699.241 695.224 698.341 696.724 699.041C699.624 700.341 703.624 704.341 703.624 704.341Z" fill="black" fill-opacity="0.38"/>
<path d="M458.725 332.941H578.625V702.341H457.625L458.725 332.941Z" fill="#3B32EF"/>
<path d="M578.625 679.341C578.625 679.341 558.625 665.341 544.625 664.341C530.625 663.341 528.625 660.341 517.625 674.341C506.625 688.341 459.625 701.841 459.625 701.841L578.625 702.341V679.341Z" fill="black" fill-opacity="0.38"/>
<path opacity="0.4" d="M471.924 333.341L543.325 702.641L457.625 702.341L458.625 333.341H471.924Z" fill="#0024D9"/>
<path d="M721.825 448.241C721.825 448.241 730.225 443.841 734.825 441.141C739.425 438.441 740.525 430.741 740.525 430.741L733.925 429.641L724.025 432.941L716.325 443.941L721.825 448.241Z" fill="#FFC692"/>
<path d="M481.625 354.341C481.625 354.341 478.625 324.341 503.625 315.341C528.625 306.341 655.248 308.226 702.248 249.226C749.248 190.226 758.725 139.041 821.625 66.3412C961.625 -95.6588 1327.62 -87.6588 1406.62 -90.6588C1406.62 -90.6588 1211.02 -135.059 1169.62 -139.659C1049.02 -153.059 983.525 -155.259 874.625 -82.6588C826.325 -50.4588 741.525 42.7412 727.625 46.3412C695.025 54.9412 682.825 133.841 660.825 164.741C608.625 238.341 638.625 140.341 602.625 168.341C579.225 186.541 578.025 252.741 551.625 262.341C534.225 268.641 519.125 250.941 510.625 261.341C461.625 321.341 458.625 333.341 458.625 333.341L458.725 338.441V346.941C461.925 355.041 464.625 361.341 464.625 361.341L481.625 354.341Z" fill="url(#paint0_linear_104_2153)"/>
<path d="M1718.62 1061.34L1624.62 -99.6587L1096.92 -81.6587C1040.62 -99.3587 894.225 -120.059 805.625 55.3413C762.225 141.141 746.625 188.341 699.625 247.341C652.625 306.341 528.625 306.341 503.625 315.341C478.625 324.341 481.625 354.341 481.625 354.341L464.625 361.341C464.625 361.341 461.825 355.041 458.725 346.941L457.625 702.341C457.625 702.341 487.925 712.241 530.325 728.041C553.025 736.441 596.825 786.141 623.625 797.341C648.825 807.941 657.125 779.841 681.225 791.841C716.325 809.241 728.825 848.541 749.625 866.341C772.425 885.841 807.925 887.541 819.825 911.641C832.825 938.141 840.125 966.341 843.725 993.641C847.125 1019.24 851.825 1053.14 856.625 1087.74C876.225 1228.24 911.025 1354.24 1037.62 1418.34C1286.62 1544.34 1579.92 1464.24 1697.62 1328.34C1712.12 1311.54 1718.62 1061.34 1718.62 1061.34Z" fill="url(#paint1_linear_104_2153)"/>
<path d="M575.625 667.341L1655.62 689.341L1700.62 1325.34C1700.62 1325.34 1364.92 1634.54 1040.62 1295.34C931.625 1181.34 1003.62 922.341 790.625 802.341C743.225 775.641 477.625 695.341 477.625 695.341L575.625 667.341Z" fill="url(#paint2_linear_104_2153)"/>
<path opacity="0.18" d="M578.625 340.341V668.341L458.625 634.341V392.341L578.625 340.341Z" fill="#B64E4E"/>
<path opacity="0.54" d="M578.625 407.341L578.225 340.641L1558.68 23.3413L1591.56 966.141L578.625 668.441V407.341Z" fill="url(#paint3_linear_104_2153)"/>
<path d="M670.525 393.541C669.325 393.541 662.625 402.041 661.425 405.141C660.225 408.141 662.025 411.241 662.025 411.241C662.025 411.241 647.425 408.241 645.625 405.141C645.625 405.141 649.325 397.841 646.225 391.741C643.225 385.641 656.525 374.141 656.525 374.141L669.925 393.041L670.525 393.541Z" fill="#F5AF7E"/>
<path d="M678.825 363.041L681.025 371.741C680.368 373.383 679.898 375.094 679.625 376.841C679.425 378.941 681.025 384.141 681.025 384.141L679.525 385.441C679.525 385.441 679.525 396.041 678.225 396.941C677.225 397.641 669.225 394.941 664.225 393.341C662.643 392.781 661.209 391.868 660.031 390.673C658.853 389.478 657.962 388.031 657.425 386.441C657.197 385.866 657.062 385.259 657.025 384.641C656.725 381.641 653.625 382.541 652.825 381.341C652.025 380.141 651.525 374.441 653.325 374.441C655.125 374.441 654.125 371.641 654.725 372.941C655.225 374.241 664.325 366.141 668.625 363.541C672.725 361.041 673.525 358.641 678.825 363.041Z" fill="#FFC692"/>
<path d="M661.924 410.741L666.724 417.441L666.924 411.841L661.924 410.741Z" fill="#FE9D00"/>
<path d="M637.124 573.041C637.124 573.041 629.824 591.941 626.824 594.941C623.824 597.941 574.524 643.041 569.624 651.541C564.724 660.041 574.524 674.041 573.924 675.241C573.324 676.441 557.524 658.241 556.924 653.941C556.324 649.641 560.624 650.941 563.024 646.641C565.424 642.341 595.224 589.441 615.324 582.141C615.324 582.141 619.024 575.441 618.324 568.741C617.624 562.041 637.124 573.041 637.124 573.041Z" fill="#F5AF7E"/>
<path d="M663.724 419.741L684.524 468.041L715.224 441.741C715.224 441.741 721.824 446.141 722.924 450.541C722.924 450.541 699.924 476.841 684.524 484.541L659.324 460.341L663.724 419.741Z" fill="#FE6B03"/>
<path d="M635.924 484.241L646.824 486.041C646.824 486.041 651.124 477.541 644.424 464.141C637.724 450.741 641.424 416.641 641.424 416.641L651.724 412.941L643.224 408.641L663.324 411.641C662.724 417.741 670.624 428.041 672.424 432.341C674.224 436.641 677.324 443.341 675.424 446.941C673.624 450.641 669.324 466.441 669.324 476.741C669.295 479.69 669.529 482.635 670.024 485.541C670.432 487.446 670.6 489.395 670.524 491.341C667.224 494.641 637.924 490.941 632.424 490.241C633.224 490.141 634.524 488.841 635.924 484.241Z" fill="#FD8F00"/>
<path d="M631.625 490.241C631.927 490.253 632.227 490.286 632.525 490.341C632.388 490.437 632.221 490.479 632.056 490.46C631.89 490.442 631.737 490.364 631.625 490.241V490.241Z" fill="url(#paint4_linear_104_2153)"/>
<path d="M647.424 421.541C647.424 421.541 645.024 451.341 651.724 464.741C658.424 478.141 646.824 486.041 646.824 486.041L635.924 484.241C636.324 483.041 636.724 481.641 637.124 479.941C640.124 467.141 632.224 436.141 631.624 431.841C631.024 427.541 643.224 408.741 643.224 408.741L651.724 413.041L647.424 421.541Z" fill="#FE9D00"/>
<path d="M689.424 685.041C690.624 682.041 669.324 644.841 665.124 629.641C660.824 614.441 665.724 596.141 666.324 589.441C666.924 582.741 662.624 573.041 662.624 573.041L654.324 571.841L654.024 571.241C654.024 571.241 663.724 556.641 671.624 564.541C679.524 572.441 675.924 576.141 676.524 587.641C677.124 599.241 690.524 680.141 696.024 683.741C701.524 687.441 714.924 697.141 714.924 697.141L713.124 697.741C711.724 698.241 697.324 696.541 690.224 695.741C690.224 693.441 688.524 687.341 689.424 685.041Z" fill="#FFC692"/>
<path d="M688.224 695.541C687.024 695.441 686.324 695.341 686.324 695.341C686.252 694.912 686.219 694.477 686.224 694.041L686.324 694.141C686.424 694.141 687.224 694.841 688.224 695.541Z" fill="#FFC692"/>
<path d="M690.625 697.341C691.325 697.941 689.725 696.741 688.225 695.541C688.825 695.641 689.425 695.641 690.225 695.741C690.145 696.306 690.289 696.88 690.625 697.341Z" fill="#F5AF7E"/>
<path d="M687.024 686.841C688.224 681.341 671.824 655.841 663.924 635.741C656.024 615.641 661.524 588.241 661.524 588.241L654.424 571.741L662.724 572.941C662.724 572.941 670.024 582.041 669.424 588.741C668.824 595.441 663.324 613.041 667.624 628.341C671.924 643.541 693.824 683.741 692.524 686.741C691.624 689.041 690.324 693.341 690.324 695.741C689.662 695.635 688.994 695.568 688.324 695.541C687.324 694.741 686.424 694.141 686.424 694.141L686.324 694.041C686.19 691.62 686.426 689.192 687.024 686.841V686.841Z" fill="#F5AF7E"/>
<path d="M669.925 486.041C669.925 486.041 640.725 487.241 635.825 484.241C635.825 484.241 627.325 495.841 626.125 502.541C624.925 509.241 629.125 522.641 627.925 528.141C626.725 533.641 621.225 565.241 615.725 569.541C615.725 569.541 647.925 584.141 679.625 570.141C679.625 570.141 670.525 536.641 668.625 528.741C666.725 520.841 674.825 503.041 669.925 486.041Z" fill="#0027E0"/>
<path d="M646.824 486.041C646.824 486.041 635.824 498.241 637.124 511.641C638.324 524.941 637.124 525.641 654.124 574.441C654.224 574.841 654.024 575.741 654.224 576.141C654.224 576.141 632.324 576.741 615.924 569.441C615.924 569.441 627.824 535.641 627.524 525.641C627.224 515.641 621.824 504.541 631.824 490.341L636.124 484.241L646.824 486.041Z" fill="#3B32EF"/>
<path d="M733.825 707.541C733.825 707.541 719.825 711.241 708.925 708.141C698.025 705.041 696.125 702.041 694.325 702.041C694.087 702.036 693.851 702.079 693.63 702.168C693.409 702.257 693.209 702.389 693.041 702.557C692.873 702.725 692.74 702.926 692.651 703.146C692.563 703.367 692.52 703.603 692.525 703.841L686.425 703.241C686.425 703.241 685.225 698.941 685.825 697.141C686.425 695.341 696.825 698.941 696.825 698.941L733.825 707.541Z" fill="#103389"/>
<path d="M686.425 694.441C686.425 694.441 708.325 698.441 715.025 697.141C715.025 697.141 726.025 703.241 730.225 705.041C734.525 706.841 734.525 706.841 733.925 707.441C733.325 708.041 710.825 706.841 704.125 703.741C697.425 700.741 693.825 698.841 690.125 699.441C686.425 700.241 684.525 698.341 686.425 694.441Z" fill="url(#paint5_linear_104_2153)"/>
<path d="M579.424 695.041C579.424 695.041 567.124 687.541 561.624 677.541C556.224 667.541 557.124 664.141 555.824 662.841C555.656 662.666 555.454 662.526 555.231 662.431C555.008 662.336 554.767 662.286 554.524 662.286C554.281 662.286 554.041 662.336 553.818 662.431C553.594 662.526 553.392 662.666 553.224 662.841L549.424 658.041C549.424 658.041 551.624 654.241 553.424 653.341C555.124 652.541 559.724 662.541 559.724 662.541L579.424 695.041Z" fill="#103389"/>
<path d="M555.924 651.841C555.924 651.841 568.324 670.341 573.824 674.341C573.824 674.341 577.024 686.441 578.724 690.741C580.324 695.041 580.324 695.041 579.524 695.041C578.624 695.041 563.924 677.941 561.424 671.041C558.924 664.141 557.724 660.241 554.824 658.041C551.824 655.841 551.824 653.241 555.924 651.841Z" fill="url(#paint6_linear_104_2153)"/>
<path d="M643.825 402.641L664.525 411.141L662.625 417.841L637.125 407.541L643.825 402.641Z" fill="#FE6B03"/>
<path d="M624.225 546.641H669.225C669.225 546.641 667.025 596.041 669.225 606.941C669.225 606.941 632.525 610.041 624.625 605.641C624.625 605.641 627.325 563.241 624.225 546.641Z" fill="#00CBFE"/>
<path d="M669.224 606.941C669.224 606.941 671.824 596.841 677.124 599.941C677.124 599.941 668.424 562.841 678.024 545.341L668.824 546.641C668.824 546.641 661.324 599.041 669.224 606.941Z" fill="#00B3FF"/>
<path d="M624.225 546.641C624.225 546.641 632.925 547.541 639.125 543.141L677.625 545.341C677.625 545.341 679.625 544.741 674.125 551.441C670.225 556.241 667.325 547.941 668.925 549.741C669.425 550.341 668.525 549.741 668.525 549.741" fill="#0589C1"/>
<path d="M640.825 547.941C640.825 547.941 639.125 526.541 647.825 526.541C656.525 526.541 657.025 549.241 657.025 549.241" stroke="#FE6B03"/>
<path d="M645.325 543.241C645.325 543.241 641.025 527.141 645.425 526.341C649.825 525.441 662.925 544.241 662.925 544.241" stroke="#FE6B03"/>
<path d="M629.074 464.516L624.83 474.858L643.624 525.878C643.624 525.878 643.741 532.275 651.149 535.895C652.33 536.539 653.602 536.997 654.923 537.253C656.832 537.482 657.399 537.181 656.336 535.895C656.277 535.052 656.277 534.206 656.337 533.363C656.167 529.972 655.105 526.687 653.258 523.838C650.178 519.094 648.222 518.678 648.222 518.678L636.789 476.788L641.811 463.749L629.074 464.516Z" fill="#ECC9B1"/>
<path d="M653.325 423.641C653.325 423.641 647.325 416.541 641.825 420.941C637.125 424.641 626.924 462.741 623.924 473.841C623.424 475.826 623.528 477.916 624.224 479.841L639.625 521.841C639.625 521.841 650.624 518.541 651.724 516.341L638.525 473.541C638.525 473.541 660.425 443.941 653.325 423.641Z" fill="#FE6B03"/>
<path d="M754.025 425.141L738.225 440.941C737.875 441.284 737.432 441.514 736.951 441.603C736.47 441.692 735.973 441.636 735.525 441.441L725.725 436.941C725.355 436.776 725.034 436.518 724.793 436.192C724.552 435.866 724.399 435.484 724.348 435.082C724.298 434.68 724.352 434.271 724.506 433.896C724.659 433.521 724.907 433.192 725.225 432.941L742.725 418.641C743.043 418.385 743.421 418.213 743.823 418.143C744.225 418.074 744.639 418.107 745.025 418.241L753.025 421.241C753.414 421.355 753.768 421.569 754.05 421.861C754.332 422.153 754.534 422.513 754.635 422.906C754.736 423.3 754.732 423.713 754.626 424.104C754.519 424.496 754.311 424.853 754.025 425.141Z" fill="#0766FF"/>
<path d="M753.224 423.541L737.424 439.341C737.075 439.684 736.632 439.914 736.151 440.003C735.67 440.092 735.173 440.036 734.724 439.841L724.924 435.341C724.554 435.176 724.233 434.918 723.992 434.592C723.751 434.266 723.598 433.884 723.548 433.482C723.498 433.08 723.552 432.672 723.705 432.297C723.859 431.922 724.107 431.593 724.424 431.341L741.924 417.041C742.242 416.785 742.62 416.614 743.023 416.544C743.425 416.474 743.839 416.507 744.224 416.641L752.224 419.641C752.614 419.755 752.968 419.969 753.25 420.261C753.532 420.553 753.734 420.913 753.835 421.306C753.935 421.7 753.932 422.113 753.825 422.505C753.718 422.896 753.511 423.254 753.224 423.541Z" fill="#1F3DFD"/>
<path d="M752.025 423.141L738.224 436.941C737.913 437.245 737.516 437.447 737.087 437.518C736.658 437.59 736.217 437.528 735.825 437.341L727.224 433.441C726.904 433.292 726.627 433.063 726.421 432.776C726.214 432.489 726.085 432.154 726.045 431.803C726.004 431.452 726.055 431.096 726.192 430.77C726.328 430.444 726.546 430.159 726.825 429.941L742.224 417.441C742.512 417.2 742.861 417.045 743.232 416.992C743.603 416.939 743.981 416.991 744.325 417.141L751.325 419.741C751.65 419.862 751.94 420.063 752.166 420.326C752.393 420.59 752.548 420.907 752.618 421.247C752.688 421.587 752.671 421.939 752.567 422.271C752.463 422.602 752.276 422.902 752.025 423.141V423.141Z" fill="white"/>
<path d="M735.025 422.941C735.025 422.941 729.525 422.541 729.525 424.141C729.46 425.368 729.224 426.579 728.825 427.741C728.825 427.741 731.925 425.741 733.525 424.941C735.125 424.141 735.725 423.341 735.025 422.941Z" fill="#FFC692"/>
<path d="M460.625 325.341H450.625V708.341H460.625V325.341Z" fill="#A5121F"/>
<path opacity="0.58" d="M555.425 368.041H484.325V409.341H555.425V368.041Z" fill="url(#paint7_linear_104_2153)"/>
<path d="M553.725 366.341H482.625V407.641H553.725V366.341Z" fill="url(#paint8_linear_104_2153)"/>
<path opacity="0.58" d="M561.125 543.341C565.267 543.341 568.625 539.983 568.625 535.841C568.625 531.699 565.267 528.341 561.125 528.341C556.982 528.341 553.625 531.699 553.625 535.841C553.625 539.983 556.982 543.341 561.125 543.341Z" fill="url(#paint9_linear_104_2153)"/>
<path d="M560.125 540.341C564.267 540.341 567.625 536.983 567.625 532.841C567.625 528.699 564.267 525.341 560.125 525.341C555.982 525.341 552.625 528.699 552.625 532.841C552.625 536.983 555.982 540.341 560.125 540.341Z" fill="#FFBA12"/>
<path d="M482.625 381.141L519.125 366.341H482.625L482.825 380.141L482.625 381.141Z" fill="white"/>
<path d="M639.525 392.341C639.525 392.341 625.225 398.941 625.225 410.941C625.225 423.041 628.525 427.441 626.325 432.841C624.125 438.241 620.825 440.541 620.825 446.041C620.825 451.541 630.725 463.641 630.725 463.641C634.107 459.165 637.053 454.377 639.525 449.341C643.925 440.541 645.025 439.441 643.925 427.441C642.825 415.341 637.925 398.341 643.625 393.141C649.425 387.941 649.425 386.841 649.425 386.841L639.525 392.341Z" fill="#180940"/>
<path d="M676.625 359.441C678.025 360.793 679.057 362.479 679.625 364.341C679.625 364.341 663.725 373.641 659.325 374.741C654.925 375.841 652.725 373.141 652.225 375.541C651.725 378.041 653.325 382.441 655.825 382.441C655.825 382.441 653.925 391.241 647.325 392.341C640.725 393.441 639.625 392.341 639.625 392.341C639.625 392.341 637.925 357.941 658.825 353.741C662.032 353.125 665.342 353.324 668.452 354.32C671.562 355.315 674.372 357.076 676.625 359.441V359.441Z" fill="#180940"/>
<defs>
<linearGradient id="paint0_linear_104_2153" x1="458.625" y1="107.171" x2="1406.62" y2="107.171" gradientUnits="userSpaceOnUse">
<stop stop-color="#A5121F"/>
<stop offset="0.644517" stop-color="#FAB6BC"/>
</linearGradient>
<linearGradient id="paint1_linear_104_2153" x1="457.625" y1="690.843" x2="1718.62" y2="690.843" gradientUnits="userSpaceOnUse">
<stop stop-color="#F58224"/>
<stop offset="1" stop-color="#FDFDFD"/>
</linearGradient>
<linearGradient id="paint2_linear_104_2153" x1="477.625" y1="1060.81" x2="1700.62" y2="1060.81" gradientUnits="userSpaceOnUse">
<stop stop-color="#A5121F"/>
<stop offset="0.3" stop-color="#A5121F" stop-opacity="0.63"/>
<stop offset="1" stop-color="white"/>
</linearGradient>
<linearGradient id="paint3_linear_104_2153" x1="578.225" y1="494.741" x2="1591.56" y2="494.741" gradientUnits="userSpaceOnUse">
<stop stop-color="#F58224"/>
<stop offset="1" stop-color="#FFF5EC"/>
</linearGradient>
<linearGradient id="paint4_linear_104_2153" x1="632.015" y1="472.057" x2="632.015" y2="490.826" gradientUnits="userSpaceOnUse">
<stop stop-color="#EA278B"/>
<stop offset="0.997" stop-color="#DB57B5"/>
</linearGradient>
<linearGradient id="paint5_linear_104_2153" x1="734.109" y1="701.042" x2="685.677" y2="701.042" gradientUnits="userSpaceOnUse">
<stop offset="0.356" stop-color="#009D92"/>
<stop offset="1" stop-color="#706AFB"/>
</linearGradient>
<linearGradient id="paint6_linear_104_2153" x1="580.05" y1="673.441" x2="552.668" y2="673.441" gradientUnits="userSpaceOnUse">
<stop offset="0.356" stop-color="#009D92"/>
<stop offset="1" stop-color="#00DAFF"/>
</linearGradient>
<linearGradient id="paint7_linear_104_2153" x1="484.254" y1="388.65" x2="555.425" y2="388.65" gradientUnits="userSpaceOnUse">
<stop stop-color="#FE9533"/>
<stop offset="1" stop-color="#EA404F"/>
</linearGradient>
<linearGradient id="paint8_linear_104_2153" x1="546.33" y1="415.116" x2="523.541" y2="347.614" gradientUnits="userSpaceOnUse">
<stop stop-color="#CCD8CF"/>
<stop offset="0.657" stop-color="#FFF5E0"/>
</linearGradient>
<linearGradient id="paint9_linear_104_2153" x1="553.625" y1="535.841" x2="568.625" y2="535.841" gradientUnits="userSpaceOnUse">
<stop stop-color="#FC3832"/>
<stop offset="1" stop-color="#DC312B"/>
</linearGradient>
</defs>
</svg>
